<svg xmlns="http://www.w3.org/2000/svg" xmlns:xlink="http://www.w3.org/1999/xlink" width="400" zoomAndPan="magnify" viewBox="0 0 300 299.999988" height="400" preserveAspectRatio="xMidYMid meet" version="1.0"><defs><clipPath id="83da3ab9d8"><path d="M 73.484375 116 L 157 116 L 157 172 L 73.484375 172 Z M 73.484375 116 " clip-rule="nonzero"/></clipPath><clipPath id="f5d9b21d2b"><path d="M 177 113 L 239.984375 113 L 239.984375 185 L 177 185 Z M 177 113 " clip-rule="nonzero"/></clipPath></defs><path fill="#0f0f0f" d="M 144.765625 113.355469 C 138.769531 112.023438 133.105469 111.359375 128.109375 111.359375 C 122.78125 111.359375 138.769531 90.039062 147.429688 96.035156 C 157.421875 103.03125 165.75 95.371094 169.414062 95.371094 C 182.738281 95.371094 190.066406 124.347656 190.066406 142.335938 C 189.734375 160.988281 179.738281 89.375 144.765625 113.355469 Z M 169.414062 82.378906 C 169.414062 65.722656 144.433594 65.722656 144.433594 82.378906 C 144.097656 99.035156 169.414062 99.035156 169.414062 82.378906 Z M 169.414062 82.378906 " fill-opacity="1" fill-rule="nonzero"/><g clip-path="url(#83da3ab9d8)"><path fill="#008170" d="M 103.792969 171.980469 C 95.46875 164.984375 92.800781 155.328125 92.800781 152.660156 C 92.800781 145.332031 102.128906 146 102.128906 133.675781 C 102.128906 130.675781 99.796875 125.347656 105.128906 121.683594 C 124.445312 109.027344 156.757812 121.683594 156.757812 122.351562 C 156.757812 123.015625 101.128906 119.351562 111.457031 154.660156 C 108.125 160.988281 105.460938 166.652344 103.792969 171.980469 Z M 98.464844 134.007812 C 98.464844 117.355469 73.484375 117.355469 73.484375 134.007812 C 73.484375 150.328125 98.464844 150.328125 98.464844 134.007812 Z M 98.464844 134.007812 " fill-opacity="1" fill-rule="nonzero"/></g><path fill="#008170" d="M 154.757812 211.621094 C 147.429688 216.28125 131.441406 219.945312 128.445312 211.621094 C 121.78125 193.300781 106.460938 209.621094 106.460938 186.636719 C 106.460938 166.984375 124.113281 144.335938 124.113281 146.332031 C 124.113281 147 103.792969 197.960938 140.769531 198.960938 C 145.429688 204.625 150.09375 208.621094 154.757812 211.621094 Z M 100.464844 216.949219 C 100.464844 233.9375 125.445312 232.9375 125.445312 216.949219 C 125.445312 200.960938 100.464844 199.960938 100.464844 216.949219 Z M 100.464844 216.949219 " fill-opacity="1" fill-rule="nonzero"/><path fill="#0f0f0f" d="M 178.074219 215.617188 C 156.089844 215.617188 135.105469 184.636719 136.4375 184.636719 C 136.769531 184.636719 180.074219 218.945312 192.066406 184.972656 C 209.71875 177.308594 209.386719 170.648438 209.386719 183.304688 C 209.386719 189.636719 207.386719 200.292969 200.390625 200.628906 C 184.402344 201.292969 188.066406 215.617188 178.074219 215.617188 Z M 188.066406 216.949219 C 188.066406 232.9375 213.050781 234.269531 213.050781 216.949219 C 213.050781 200.292969 188.066406 200.628906 188.066406 216.949219 Z M 188.066406 216.949219 " fill-opacity="1" fill-rule="nonzero"/><g clip-path="url(#f5d9b21d2b)"><path fill="#008170" d="M 219.710938 151.996094 C 219.710938 169.984375 177.074219 186.96875 177.074219 184.636719 C 177.074219 184.304688 223.707031 154.328125 194.730469 132.007812 C 194.0625 125.015625 192.730469 118.6875 191.066406 113.691406 C 198.058594 114.355469 204.722656 117.019531 210.050781 121.683594 C 214.382812 125.679688 211.71875 129.679688 211.71875 133.675781 C 211.382812 144.667969 219.710938 145.667969 219.710938 151.996094 Z M 240.03125 134.007812 C 240.03125 117.355469 215.046875 117.355469 215.046875 134.007812 C 215.046875 150.328125 240.03125 150.328125 240.03125 134.007812 Z M 240.03125 134.007812 " fill-opacity="1" fill-rule="nonzero"/></g></svg>