<svg xmlns="http://www.w3.org/2000/svg" xmlns:xlink="http://www.w3.org/1999/xlink" width="400" zoomAndPan="magnify" viewBox="0 0 300 299.999988" height="400" preserveAspectRatio="xMidYMid meet" version="1.0"><defs><g/><clipPath id="949681be63"><path d="M 121 78 L 162 78 L 162 119 L 121 119 Z M 121 78 " clip-rule="nonzero"/></clipPath><clipPath id="b66a3da3d2"><path d="M 86.28125 84.683594 L 182.195312 67.167969 L 199.980469 164.558594 L 104.066406 182.074219 Z M 86.28125 84.683594 " clip-rule="nonzero"/></clipPath><clipPath id="40a278d34f"><path d="M 86.28125 84.683594 L 182.195312 67.167969 L 199.980469 164.558594 L 104.066406 182.074219 Z M 86.28125 84.683594 " clip-rule="nonzero"/></clipPath><clipPath id="f920457dd2"><path d="M 93 107 L 141 107 L 141 143 L 93 143 Z M 93 107 " clip-rule="nonzero"/></clipPath><clipPath id="48fd833b0c"><path d="M 86.28125 84.683594 L 182.195312 67.167969 L 199.980469 164.558594 L 104.066406 182.074219 Z M 86.28125 84.683594 " clip-rule="nonzero"/></clipPath><clipPath id="f2e36f00a4"><path d="M 86.28125 84.683594 L 182.195312 67.167969 L 199.980469 164.558594 L 104.066406 182.074219 Z M 86.28125 84.683594 " clip-rule="nonzero"/></clipPath><clipPath id="034de3ece4"><path d="M 117 126 L 149 126 L 149 176 L 117 176 Z M 117 126 " clip-rule="nonzero"/></clipPath><clipPath id="a888a5d69c"><path d="M 86.28125 84.683594 L 182.195312 67.167969 L 199.980469 164.558594 L 104.066406 182.074219 Z M 86.28125 84.683594 " clip-rule="nonzero"/></clipPath><clipPath id="658250c50c"><path d="M 86.28125 84.683594 L 182.195312 67.167969 L 199.980469 164.558594 L 104.066406 182.074219 Z M 86.28125 84.683594 " clip-rule="nonzero"/></clipPath><clipPath id="fa13d3ee3d"><path d="M 134 134 L 183 134 L 183 166 L 134 166 Z M 134 134 " clip-rule="nonzero"/></clipPath><clipPath id="ceff1848de"><path d="M 86.28125 84.683594 L 182.195312 67.167969 L 199.980469 164.558594 L 104.066406 182.074219 Z M 86.28125 84.683594 " clip-rule="nonzero"/></clipPath><clipPath id="e5fdf13e8c"><path d="M 86.28125 84.683594 L 182.195312 67.167969 L 199.980469 164.558594 L 104.066406 182.074219 Z M 86.28125 84.683594 " clip-rule="nonzero"/></clipPath><clipPath id="9584f91b8d"><path d="M 158 100 L 190 100 L 190 143 L 158 143 Z M 158 100 " clip-rule="nonzero"/></clipPath><clipPath id="699d1b6ae5"><path d="M 86.28125 84.683594 L 182.195312 67.167969 L 199.980469 164.558594 L 104.066406 182.074219 Z M 86.28125 84.683594 " clip-rule="nonzero"/></clipPath><clipPath id="fdeb231860"><path d="M 86.28125 84.683594 L 182.195312 67.167969 L 199.980469 164.558594 L 104.066406 182.074219 Z M 86.28125 84.683594 " clip-rule="nonzero"/></clipPath></defs><g clip-path="url(#949681be63)"><g clip-path="url(#b66a3da3d2)"><g clip-path="url(#40a278d34f)"><path fill="#0f0f0f" d="M 132.316406 104.972656 C 128.730469 104.839844 125.40625 105.050781 122.535156 105.574219 C 119.472656 106.132812 126.425781 92.203125 132.03125 94.742188 C 138.507812 97.710938 142.488281 92.4375 144.59375 92.050781 C 152.25 90.652344 159.5 106.539062 161.390625 116.875 C 163.15625 127.628906 149.898438 87.523438 132.316406 104.972656 Z M 143.230469 84.585938 C 141.480469 75.015625 127.125 77.636719 128.875 87.207031 C 130.429688 96.8125 144.976562 94.15625 143.230469 84.585938 Z M 143.230469 84.585938 " fill-opacity="1" fill-rule="nonzero"/></g></g></g><g clip-path="url(#f920457dd2)"><g clip-path="url(#48fd833b0c)"><g clip-path="url(#f2e36f00a4)"><path fill="#008170" d="M 114.925781 142.960938 C 109.40625 139.816406 106.859375 134.546875 106.582031 133.015625 C 105.8125 128.804688 111.242188 128.207031 109.949219 121.125 C 109.632812 119.402344 107.734375 116.585938 110.410156 113.917969 C 120.1875 104.617188 140.082031 108.5 140.152344 108.882812 C 140.222656 109.265625 107.871094 113 117.507812 132.207031 C 116.257812 136.191406 115.324219 139.726562 114.925781 142.960938 Z M 107.878906 121.699219 C 106.128906 112.128906 91.773438 114.753906 93.519531 124.324219 C 95.234375 133.703125 109.589844 131.082031 107.878906 121.699219 Z M 107.878906 121.699219 " fill-opacity="1" fill-rule="nonzero"/></g></g></g><g clip-path="url(#034de3ece4)"><g clip-path="url(#a888a5d69c)"><g clip-path="url(#658250c50c)"><path fill="#008170" d="M 148.371094 160.394531 C 144.648438 163.839844 135.84375 167.625 133.25 163.152344 C 127.5 153.324219 120.40625 164.3125 117.992188 151.105469 C 115.933594 139.8125 123.699219 124.941406 123.910156 126.089844 C 123.980469 126.472656 117.652344 157.894531 139.003906 154.585938 C 142.277344 157.351562 145.375 159.160156 148.371094 160.394531 Z M 117.730469 169.152344 C 119.511719 178.914062 133.761719 175.71875 132.085938 166.53125 C 130.40625 157.34375 115.945312 159.390625 117.730469 169.152344 Z M 117.730469 169.152344 " fill-opacity="1" fill-rule="nonzero"/></g></g></g><g clip-path="url(#fa13d3ee3d)"><g clip-path="url(#ceff1848de)"><g clip-path="url(#e5fdf13e8c)"><path fill="#0f0f0f" d="M 162.1875 160.242188 C 149.554688 162.550781 134.246094 146.949219 135.011719 146.8125 C 135.203125 146.777344 163.6875 161.945312 167.011719 141.164062 C 176.351562 134.910156 175.460938 131.117188 176.789062 138.390625 C 177.457031 142.027344 177.425781 148.363281 173.441406 149.285156 C 164.324219 151.347656 167.929688 159.195312 162.1875 160.242188 Z M 168.070312 159.960938 C 169.75 169.148438 184.246094 167.292969 182.425781 157.339844 C 180.679688 147.765625 166.359375 150.582031 168.070312 159.960938 Z M 168.070312 159.960938 " fill-opacity="1" fill-rule="nonzero"/></g></g></g><g clip-path="url(#9584f91b8d)"><g clip-path="url(#699d1b6ae5)"><g clip-path="url(#fdeb231860)"><path fill="#008170" d="M 179.4375 119.3125 C 181.328125 129.648438 158.609375 143.886719 158.363281 142.546875 C 158.328125 142.355469 181.980469 120.234375 162.984375 110.449219 C 161.867188 106.5 160.4375 103.003906 158.957031 100.308594 C 163.046875 99.957031 167.15625 100.789062 170.707031 102.910156 C 173.613281 104.75 172.503906 107.328125 172.921875 109.625 C 173.882812 115.976562 178.773438 115.675781 179.4375 119.3125 Z M 189.226562 106.84375 C 187.480469 97.273438 173.125 99.894531 174.871094 109.464844 C 176.585938 118.847656 190.941406 116.222656 189.226562 106.84375 Z M 189.226562 106.84375 " fill-opacity="1" fill-rule="nonzero"/></g></g></g><g fill="#0f0f0f" fill-opacity="1"><g transform="translate(105.030048, 206.148938)"><g><path d="M 3.125 -8.84375 L 3.1875 -7.859375 C 3.820312 -8.617188 4.671875 -9 5.734375 -9 C 6.867188 -9 7.648438 -8.550781 8.078125 -7.65625 C 8.703125 -8.550781 9.585938 -9 10.734375 -9 C 11.691406 -9 12.40625 -8.71875 12.875 -8.15625 C 13.34375 -7.601562 13.578125 -6.765625 13.578125 -5.640625 L 13.578125 0 L 11.203125 0 L 11.203125 -5.640625 C 11.203125 -6.140625 11.101562 -6.503906 10.90625 -6.734375 C 10.71875 -6.960938 10.375 -7.078125 9.875 -7.078125 C 9.164062 -7.078125 8.675781 -6.742188 8.40625 -6.078125 L 8.421875 0 L 6.0625 0 L 6.0625 -5.625 C 6.0625 -6.132812 5.957031 -6.503906 5.75 -6.734375 C 5.550781 -6.960938 5.207031 -7.078125 4.71875 -7.078125 C 4.050781 -7.078125 3.566406 -6.800781 3.265625 -6.25 L 3.265625 0 L 0.90625 0 L 0.90625 -8.84375 Z M 3.125 -8.84375 "/></g></g></g><g fill="#0f0f0f" fill-opacity="1"><g transform="translate(119.517375, 206.148938)"><g><path d="M 4.203125 -3.34375 L 5.84375 -8.84375 L 8.375 -8.84375 L 4.828125 1.375 L 4.625 1.84375 C 4.09375 3 3.222656 3.578125 2.015625 3.578125 C 1.671875 3.578125 1.320312 3.523438 0.96875 3.421875 L 0.96875 1.625 L 1.328125 1.640625 C 1.773438 1.640625 2.109375 1.566406 2.328125 1.421875 C 2.546875 1.285156 2.71875 1.0625 2.84375 0.75 L 3.125 0.03125 L 0.03125 -8.84375 L 2.5625 -8.84375 Z M 4.203125 -3.34375 "/></g></g></g><g fill="#008170" fill-opacity="1"><g transform="translate(131.344434, 207.648938)"><g><path d="M 7.171875 -22.40625 L 7.171875 -7.546875 C 7.171875 -6.847656 7.359375 -6.242188 7.734375 -5.734375 C 8.117188 -5.234375 8.796875 -4.984375 9.765625 -4.984375 C 10.722656 -4.984375 11.394531 -5.234375 11.78125 -5.734375 C 12.164062 -6.242188 12.359375 -6.847656 12.359375 -7.546875 L 12.359375 -22.40625 L 17.921875 -22.40625 L 17.921875 -7.9375 C 17.921875 -6.695312 17.734375 -5.566406 17.359375 -4.546875 C 16.984375 -3.523438 16.441406 -2.648438 15.734375 -1.921875 C 15.035156 -1.191406 14.1875 -0.625 13.1875 -0.21875 C 12.1875 0.1875 11.046875 0.390625 9.765625 0.390625 C 8.484375 0.390625 7.332031 0.1875 6.3125 -0.21875 C 5.300781 -0.625 4.445312 -1.195312 3.75 -1.9375 C 3.0625 -2.675781 2.53125 -3.554688 2.15625 -4.578125 C 1.78125 -5.597656 1.59375 -6.738281 1.59375 -8 L 1.59375 -22.40625 Z M 7.171875 -22.40625 "/></g></g></g><g fill="#008170" fill-opacity="1"><g transform="translate(150.891628, 207.648938)"><g><path d="M 14.6875 0 L 9.765625 0 L 9.765625 -8.984375 C 9.765625 -9.585938 9.613281 -10.085938 9.3125 -10.484375 C 9.007812 -10.878906 8.570312 -11.078125 8 -11.078125 C 7.425781 -11.078125 6.988281 -10.878906 6.6875 -10.484375 C 6.382812 -10.085938 6.234375 -9.585938 6.234375 -8.984375 L 6.234375 0 L 1.3125 0 L 1.3125 -9.03125 C 1.3125 -10.03125 1.457031 -10.953125 1.75 -11.796875 C 2.050781 -12.640625 2.488281 -13.367188 3.0625 -13.984375 C 3.644531 -14.597656 4.347656 -15.078125 5.171875 -15.421875 C 5.992188 -15.765625 6.9375 -15.9375 8 -15.9375 C 9.0625 -15.9375 10.007812 -15.757812 10.84375 -15.40625 C 11.675781 -15.050781 12.375 -14.570312 12.9375 -13.96875 C 13.507812 -13.363281 13.941406 -12.632812 14.234375 -11.78125 C 14.535156 -10.925781 14.6875 -10.007812 14.6875 -9.03125 Z M 14.6875 0 "/></g></g></g><g fill="#008170" fill-opacity="1"><g transform="translate(166.887697, 207.648938)"><g><path d="M 7.359375 -19.875 C 7.359375 -19.039062 7.070312 -18.34375 6.5 -17.78125 C 5.9375 -17.226562 5.253906 -16.953125 4.453125 -16.953125 C 3.640625 -16.953125 2.945312 -17.226562 2.375 -17.78125 C 1.8125 -18.34375 1.53125 -19.039062 1.53125 -19.875 C 1.53125 -20.707031 1.8125 -21.398438 2.375 -21.953125 C 2.945312 -22.503906 3.640625 -22.78125 4.453125 -22.78125 C 5.253906 -22.78125 5.9375 -22.503906 6.5 -21.953125 C 7.070312 -21.398438 7.359375 -20.707031 7.359375 -19.875 Z M 7.015625 -15.546875 L 7.015625 0 L 1.890625 0 L 1.890625 -15.546875 Z M 7.015625 -15.546875 "/></g></g></g><g fill="#008170" fill-opacity="1"><g transform="translate(175.781507, 207.648938)"><g><path d="M 13.5625 -22.40625 L 13.5625 -17.21875 L 7.875 -17.21875 C 7.550781 -17.21875 7.265625 -17.144531 7.015625 -17 C 6.773438 -16.863281 6.65625 -16.625 6.65625 -16.28125 C 6.65625 -15.988281 6.867188 -15.648438 7.296875 -15.265625 C 7.722656 -14.878906 8.382812 -14.398438 9.28125 -13.828125 C 10.132812 -13.265625 10.910156 -12.710938 11.609375 -12.171875 C 12.316406 -11.628906 12.921875 -11.070312 13.421875 -10.5 C 13.921875 -9.9375 14.3125 -9.34375 14.59375 -8.71875 C 14.875 -8.09375 15.015625 -7.414062 15.015625 -6.6875 C 15.015625 -5.550781 14.882812 -4.597656 14.625 -3.828125 C 14.363281 -3.066406 13.957031 -2.421875 13.40625 -1.890625 C 12.726562 -1.203125 11.835938 -0.710938 10.734375 -0.421875 C 9.640625 -0.140625 8.410156 0 7.046875 0 L 1.125 0 L 1.125 -5.1875 L 7.015625 -5.1875 C 7.566406 -5.1875 8.03125 -5.28125 8.40625 -5.46875 C 8.789062 -5.664062 8.984375 -5.976562 8.984375 -6.40625 C 8.984375 -6.8125 8.753906 -7.222656 8.296875 -7.640625 C 7.835938 -8.066406 7.148438 -8.59375 6.234375 -9.21875 C 5.359375 -9.789062 4.585938 -10.347656 3.921875 -10.890625 C 3.265625 -11.441406 2.71875 -11.988281 2.28125 -12.53125 C 1.84375 -13.070312 1.507812 -13.628906 1.28125 -14.203125 C 1.0625 -14.785156 0.953125 -15.40625 0.953125 -16.0625 C 0.953125 -17.101562 1.117188 -18.019531 1.453125 -18.8125 C 1.785156 -19.601562 2.25 -20.265625 2.84375 -20.796875 C 3.445312 -21.328125 4.15625 -21.726562 4.96875 -22 C 5.789062 -22.269531 6.695312 -22.40625 7.6875 -22.40625 Z M 13.5625 -22.40625 "/></g></g></g><g fill="#000000" fill-opacity="1"><g transform="translate(54.892113, 236.548881)"><g><path d="M 1.140625 -4.234375 L 0.21875 -4.234375 L 1.078125 -6.265625 L 1.671875 -6.265625 Z M 2.59375 -4.234375 L 1.671875 -4.234375 L 2.53125 -6.265625 L 3.125 -6.265625 Z M 2.59375 -4.234375 "/></g></g></g><g fill="#000000" fill-opacity="1"><g transform="translate(58.312134, 236.548881)"><g><path d="M 6.625 -5.015625 C 7.007812 -5.015625 7.347656 -4.9375 7.640625 -4.78125 C 7.941406 -4.625 8.179688 -4.382812 8.359375 -4.0625 C 8.535156 -3.75 8.625 -3.363281 8.625 -2.90625 L 8.625 0 L 7.8125 0 L 7.8125 -2.796875 C 7.8125 -3.285156 7.6875 -3.660156 7.4375 -3.921875 C 7.195312 -4.179688 6.875 -4.3125 6.46875 -4.3125 C 6.039062 -4.3125 5.695312 -4.171875 5.4375 -3.890625 C 5.1875 -3.617188 5.0625 -3.226562 5.0625 -2.71875 L 5.0625 0 L 4.25 0 L 4.25 -2.796875 C 4.25 -3.285156 4.128906 -3.660156 3.890625 -3.921875 C 3.648438 -4.179688 3.320312 -4.3125 2.90625 -4.3125 C 2.476562 -4.3125 2.140625 -4.171875 1.890625 -3.890625 C 1.640625 -3.617188 1.515625 -3.226562 1.515625 -2.71875 L 1.515625 0 L 0.6875 0 L 0.6875 -4.9375 L 1.515625 -4.9375 L 1.515625 -4.21875 C 1.671875 -4.476562 1.882812 -4.675781 2.15625 -4.8125 C 2.4375 -4.945312 2.738281 -5.015625 3.0625 -5.015625 C 3.476562 -5.015625 3.84375 -4.921875 4.15625 -4.734375 C 4.476562 -4.554688 4.71875 -4.285156 4.875 -3.921875 C 5.007812 -4.273438 5.234375 -4.546875 5.546875 -4.734375 C 5.867188 -4.921875 6.226562 -5.015625 6.625 -5.015625 Z M 6.625 -5.015625 "/></g></g></g><g fill="#000000" fill-opacity="1"><g transform="translate(67.582203, 236.548881)"><g><path d="M 4.9375 -4.9375 L 1.96875 2.328125 L 1.125 2.328125 L 2.09375 -0.046875 L 0.109375 -4.9375 L 1.015625 -4.9375 L 2.5625 -0.9375 L 4.09375 -4.9375 Z M 4.9375 -4.9375 "/></g></g></g><g fill="#000000" fill-opacity="1"><g transform="translate(72.649234, 236.548881)"><g><path d="M 1.5 -6.265625 L 1.5 -2.296875 C 1.5 -1.742188 1.632812 -1.332031 1.90625 -1.0625 C 2.175781 -0.789062 2.554688 -0.65625 3.046875 -0.65625 C 3.523438 -0.65625 3.898438 -0.789062 4.171875 -1.0625 C 4.441406 -1.332031 4.578125 -1.742188 4.578125 -2.296875 L 4.578125 -6.265625 L 5.40625 -6.265625 L 5.40625 -2.3125 C 5.40625 -1.789062 5.296875 -1.347656 5.078125 -0.984375 C 4.867188 -0.628906 4.585938 -0.363281 4.234375 -0.1875 C 3.878906 -0.0195312 3.476562 0.0625 3.03125 0.0625 C 2.582031 0.0625 2.179688 -0.0195312 1.828125 -0.1875 C 1.472656 -0.363281 1.191406 -0.628906 0.984375 -0.984375 C 0.773438 -1.347656 0.671875 -1.789062 0.671875 -2.3125 L 0.671875 -6.265625 Z M 1.5 -6.265625 "/></g></g></g><g fill="#000000" fill-opacity="1"><g transform="translate(78.724272, 236.548881)"><g><path d="M 3.09375 -5.015625 C 3.695312 -5.015625 4.179688 -4.832031 4.546875 -4.46875 C 4.921875 -4.113281 5.109375 -3.59375 5.109375 -2.90625 L 5.109375 0 L 4.296875 0 L 4.296875 -2.796875 C 4.296875 -3.285156 4.171875 -3.660156 3.921875 -3.921875 C 3.679688 -4.179688 3.347656 -4.3125 2.921875 -4.3125 C 2.492188 -4.3125 2.148438 -4.175781 1.890625 -3.90625 C 1.640625 -3.632812 1.515625 -3.242188 1.515625 -2.734375 L 1.515625 0 L 0.6875 0 L 0.6875 -4.9375 L 1.515625 -4.9375 L 1.515625 -4.234375 C 1.671875 -4.484375 1.890625 -4.675781 2.171875 -4.8125 C 2.453125 -4.945312 2.757812 -5.015625 3.09375 -5.015625 Z M 3.09375 -5.015625 "/></g></g></g><g fill="#000000" fill-opacity="1"><g transform="translate(84.484312, 236.548881)"><g><path d="M 1.109375 -5.734375 C 0.953125 -5.734375 0.820312 -5.785156 0.71875 -5.890625 C 0.613281 -6.003906 0.5625 -6.140625 0.5625 -6.296875 C 0.5625 -6.453125 0.613281 -6.582031 0.71875 -6.6875 C 0.820312 -6.789062 0.953125 -6.84375 1.109375 -6.84375 C 1.265625 -6.84375 1.394531 -6.789062 1.5 -6.6875 C 1.601562 -6.582031 1.65625 -6.453125 1.65625 -6.296875 C 1.65625 -6.140625 1.601562 -6.003906 1.5 -5.890625 C 1.394531 -5.785156 1.265625 -5.734375 1.109375 -5.734375 Z M 1.515625 -4.9375 L 1.515625 0 L 0.6875 0 L 0.6875 -4.9375 Z M 1.515625 -4.9375 "/></g></g></g><g fill="#000000" fill-opacity="1"><g transform="translate(86.698332, 236.548881)"><g><path d="M 2.4375 0.078125 C 2.0625 0.078125 1.722656 0.015625 1.421875 -0.109375 C 1.117188 -0.242188 0.878906 -0.425781 0.703125 -0.65625 C 0.535156 -0.882812 0.441406 -1.148438 0.421875 -1.453125 L 1.265625 -1.453125 C 1.296875 -1.203125 1.410156 -1 1.609375 -0.84375 C 1.816406 -0.6875 2.09375 -0.609375 2.4375 -0.609375 C 2.738281 -0.609375 2.976562 -0.675781 3.15625 -0.8125 C 3.34375 -0.957031 3.4375 -1.132812 3.4375 -1.34375 C 3.4375 -1.5625 3.335938 -1.722656 3.140625 -1.828125 C 2.953125 -1.929688 2.660156 -2.035156 2.265625 -2.140625 C 1.890625 -2.234375 1.585938 -2.328125 1.359375 -2.421875 C 1.128906 -2.523438 0.929688 -2.671875 0.765625 -2.859375 C 0.597656 -3.054688 0.515625 -3.316406 0.515625 -3.640625 C 0.515625 -3.890625 0.585938 -4.117188 0.734375 -4.328125 C 0.890625 -4.535156 1.101562 -4.703125 1.375 -4.828125 C 1.65625 -4.953125 1.972656 -5.015625 2.328125 -5.015625 C 2.878906 -5.015625 3.320312 -4.875 3.65625 -4.59375 C 3.988281 -4.320312 4.164062 -3.945312 4.1875 -3.46875 L 3.375 -3.46875 C 3.351562 -3.726562 3.25 -3.929688 3.0625 -4.078125 C 2.875 -4.234375 2.617188 -4.3125 2.296875 -4.3125 C 2.003906 -4.3125 1.769531 -4.25 1.59375 -4.125 C 1.425781 -4 1.34375 -3.835938 1.34375 -3.640625 C 1.34375 -3.472656 1.394531 -3.335938 1.5 -3.234375 C 1.601562 -3.128906 1.734375 -3.046875 1.890625 -2.984375 C 2.054688 -2.921875 2.28125 -2.847656 2.5625 -2.765625 C 2.914062 -2.671875 3.203125 -2.578125 3.421875 -2.484375 C 3.640625 -2.390625 3.828125 -2.25 3.984375 -2.0625 C 4.148438 -1.882812 4.234375 -1.644531 4.234375 -1.34375 C 4.234375 -1.070312 4.15625 -0.828125 4 -0.609375 C 3.851562 -0.390625 3.644531 -0.21875 3.375 -0.09375 C 3.101562 0.0195312 2.789062 0.078125 2.4375 0.078125 Z M 2.4375 0.078125 "/></g></g></g><g fill="#000000" fill-opacity="1"><g transform="translate(91.39636, 236.548881)"><g><path d="M 1.53125 -1.140625 L 0.53125 1.28125 L -0.015625 1.28125 L 0.640625 -1.140625 Z M 1.53125 -1.140625 "/></g></g></g><g fill="#000000" fill-opacity="1"><g transform="translate(93.178377, 236.548881)"><g/></g></g><g fill="#000000" fill-opacity="1"><g transform="translate(95.581395, 236.548881)"><g><path d="M 7.265625 -4.9375 L 5.71875 0 L 4.875 0 L 3.6875 -3.921875 L 2.5 0 L 1.65625 0 L 0.109375 -4.9375 L 0.9375 -4.9375 L 2.078125 -0.796875 L 3.296875 -4.9375 L 4.140625 -4.9375 L 5.34375 -0.78125 L 6.453125 -4.9375 Z M 7.265625 -4.9375 "/></g></g></g><g fill="#000000" fill-opacity="1"><g transform="translate(102.961449, 236.548881)"><g><path d="M 3.140625 -5.015625 C 3.515625 -5.015625 3.847656 -4.9375 4.140625 -4.78125 C 4.441406 -4.625 4.675781 -4.382812 4.84375 -4.0625 C 5.019531 -3.75 5.109375 -3.363281 5.109375 -2.90625 L 5.109375 0 L 4.296875 0 L 4.296875 -2.796875 C 4.296875 -3.285156 4.171875 -3.660156 3.921875 -3.921875 C 3.679688 -4.179688 3.347656 -4.3125 2.921875 -4.3125 C 2.492188 -4.3125 2.148438 -4.175781 1.890625 -3.90625 C 1.640625 -3.632812 1.515625 -3.242188 1.515625 -2.734375 L 1.515625 0 L 0.6875 0 L 0.6875 -6.65625 L 1.515625 -6.65625 L 1.515625 -4.234375 C 1.671875 -4.484375 1.890625 -4.675781 2.171875 -4.8125 C 2.460938 -4.945312 2.785156 -5.015625 3.140625 -5.015625 Z M 3.140625 -5.015625 "/></g></g></g><g fill="#000000" fill-opacity="1"><g transform="translate(108.721489, 236.548881)"><g><path d="M 5.1875 -2.65625 C 5.1875 -2.5 5.179688 -2.332031 5.171875 -2.15625 L 1.21875 -2.15625 C 1.25 -1.675781 1.414062 -1.296875 1.71875 -1.015625 C 2.019531 -0.742188 2.390625 -0.609375 2.828125 -0.609375 C 3.179688 -0.609375 3.472656 -0.691406 3.703125 -0.859375 C 3.941406 -1.023438 4.113281 -1.242188 4.21875 -1.515625 L 5.09375 -1.515625 C 4.957031 -1.046875 4.691406 -0.660156 4.296875 -0.359375 C 3.898438 -0.0664062 3.410156 0.078125 2.828125 0.078125 C 2.359375 0.078125 1.9375 -0.0234375 1.5625 -0.234375 C 1.195312 -0.441406 0.910156 -0.738281 0.703125 -1.125 C 0.492188 -1.507812 0.390625 -1.957031 0.390625 -2.46875 C 0.390625 -2.976562 0.488281 -3.425781 0.6875 -3.8125 C 0.894531 -4.195312 1.179688 -4.492188 1.546875 -4.703125 C 1.921875 -4.910156 2.347656 -5.015625 2.828125 -5.015625 C 3.296875 -5.015625 3.707031 -4.910156 4.0625 -4.703125 C 4.425781 -4.503906 4.703125 -4.222656 4.890625 -3.859375 C 5.085938 -3.503906 5.1875 -3.101562 5.1875 -2.65625 Z M 4.34375 -2.828125 C 4.34375 -3.140625 4.273438 -3.40625 4.140625 -3.625 C 4.003906 -3.851562 3.816406 -4.023438 3.578125 -4.140625 C 3.335938 -4.253906 3.078125 -4.3125 2.796875 -4.3125 C 2.378906 -4.3125 2.023438 -4.179688 1.734375 -3.921875 C 1.441406 -3.660156 1.273438 -3.296875 1.234375 -2.828125 Z M 4.34375 -2.828125 "/></g></g></g><g fill="#000000" fill-opacity="1"><g transform="translate(114.301525, 236.548881)"><g><path d="M 1.515625 -4.125 C 1.660156 -4.40625 1.863281 -4.625 2.125 -4.78125 C 2.394531 -4.9375 2.722656 -5.015625 3.109375 -5.015625 L 3.109375 -4.171875 L 2.890625 -4.171875 C 1.972656 -4.171875 1.515625 -3.675781 1.515625 -2.6875 L 1.515625 0 L 0.6875 0 L 0.6875 -4.9375 L 1.515625 -4.9375 Z M 1.515625 -4.125 "/></g></g></g><g fill="#000000" fill-opacity="1"><g transform="translate(117.658546, 236.548881)"><g><path d="M 5.1875 -2.65625 C 5.1875 -2.5 5.179688 -2.332031 5.171875 -2.15625 L 1.21875 -2.15625 C 1.25 -1.675781 1.414062 -1.296875 1.71875 -1.015625 C 2.019531 -0.742188 2.390625 -0.609375 2.828125 -0.609375 C 3.179688 -0.609375 3.472656 -0.691406 3.703125 -0.859375 C 3.941406 -1.023438 4.113281 -1.242188 4.21875 -1.515625 L 5.09375 -1.515625 C 4.957031 -1.046875 4.691406 -0.660156 4.296875 -0.359375 C 3.898438 -0.0664062 3.410156 0.078125 2.828125 0.078125 C 2.359375 0.078125 1.9375 -0.0234375 1.5625 -0.234375 C 1.195312 -0.441406 0.910156 -0.738281 0.703125 -1.125 C 0.492188 -1.507812 0.390625 -1.957031 0.390625 -2.46875 C 0.390625 -2.976562 0.488281 -3.425781 0.6875 -3.8125 C 0.894531 -4.195312 1.179688 -4.492188 1.546875 -4.703125 C 1.921875 -4.910156 2.347656 -5.015625 2.828125 -5.015625 C 3.296875 -5.015625 3.707031 -4.910156 4.0625 -4.703125 C 4.425781 -4.503906 4.703125 -4.222656 4.890625 -3.859375 C 5.085938 -3.503906 5.1875 -3.101562 5.1875 -2.65625 Z M 4.34375 -2.828125 C 4.34375 -3.140625 4.273438 -3.40625 4.140625 -3.625 C 4.003906 -3.851562 3.816406 -4.023438 3.578125 -4.140625 C 3.335938 -4.253906 3.078125 -4.3125 2.796875 -4.3125 C 2.378906 -4.3125 2.023438 -4.179688 1.734375 -3.921875 C 1.441406 -3.660156 1.273438 -3.296875 1.234375 -2.828125 Z M 4.34375 -2.828125 "/></g></g></g><g fill="#000000" fill-opacity="1"><g transform="translate(123.238581, 236.548881)"><g/></g></g><g fill="#000000" fill-opacity="1"><g transform="translate(125.6416, 236.548881)"><g><path d="M 0.390625 -2.46875 C 0.390625 -2.976562 0.488281 -3.425781 0.6875 -3.8125 C 0.894531 -4.195312 1.179688 -4.492188 1.546875 -4.703125 C 1.910156 -4.910156 2.328125 -5.015625 2.796875 -5.015625 C 3.398438 -5.015625 3.894531 -4.863281 4.28125 -4.5625 C 4.675781 -4.269531 4.9375 -3.863281 5.0625 -3.34375 L 4.1875 -3.34375 C 4.101562 -3.644531 3.9375 -3.878906 3.6875 -4.046875 C 3.445312 -4.222656 3.148438 -4.3125 2.796875 -4.3125 C 2.328125 -4.3125 1.945312 -4.148438 1.65625 -3.828125 C 1.363281 -3.515625 1.21875 -3.0625 1.21875 -2.46875 C 1.21875 -1.875 1.363281 -1.414062 1.65625 -1.09375 C 1.945312 -0.769531 2.328125 -0.609375 2.796875 -0.609375 C 3.148438 -0.609375 3.445312 -0.691406 3.6875 -0.859375 C 3.925781 -1.023438 4.09375 -1.265625 4.1875 -1.578125 L 5.0625 -1.578125 C 4.9375 -1.078125 4.675781 -0.675781 4.28125 -0.375 C 3.882812 -0.0703125 3.390625 0.078125 2.796875 0.078125 C 2.328125 0.078125 1.910156 -0.0234375 1.546875 -0.234375 C 1.179688 -0.441406 0.894531 -0.738281 0.6875 -1.125 C 0.488281 -1.507812 0.390625 -1.957031 0.390625 -2.46875 Z M 0.390625 -2.46875 "/></g></g></g><g fill="#000000" fill-opacity="1"><g transform="translate(131.104643, 236.548881)"><g><path d="M 0.390625 -2.484375 C 0.390625 -2.984375 0.488281 -3.425781 0.6875 -3.8125 C 0.894531 -4.195312 1.175781 -4.492188 1.53125 -4.703125 C 1.882812 -4.910156 2.285156 -5.015625 2.734375 -5.015625 C 3.160156 -5.015625 3.53125 -4.921875 3.84375 -4.734375 C 4.164062 -4.546875 4.40625 -4.3125 4.5625 -4.03125 L 4.5625 -4.9375 L 5.390625 -4.9375 L 5.390625 0 L 4.5625 0 L 4.5625 -0.921875 C 4.394531 -0.628906 4.148438 -0.390625 3.828125 -0.203125 C 3.515625 -0.015625 3.144531 0.078125 2.71875 0.078125 C 2.28125 0.078125 1.882812 -0.0234375 1.53125 -0.234375 C 1.175781 -0.453125 0.894531 -0.753906 0.6875 -1.140625 C 0.488281 -1.535156 0.390625 -1.984375 0.390625 -2.484375 Z M 4.5625 -2.46875 C 4.5625 -2.84375 4.484375 -3.164062 4.328125 -3.4375 C 4.179688 -3.71875 3.976562 -3.929688 3.71875 -4.078125 C 3.46875 -4.222656 3.191406 -4.296875 2.890625 -4.296875 C 2.585938 -4.296875 2.304688 -4.222656 2.046875 -4.078125 C 1.796875 -3.941406 1.59375 -3.734375 1.4375 -3.453125 C 1.289062 -3.179688 1.21875 -2.859375 1.21875 -2.484375 C 1.21875 -2.109375 1.289062 -1.78125 1.4375 -1.5 C 1.59375 -1.21875 1.796875 -1.003906 2.046875 -0.859375 C 2.304688 -0.710938 2.585938 -0.640625 2.890625 -0.640625 C 3.191406 -0.640625 3.46875 -0.710938 3.71875 -0.859375 C 3.976562 -1.003906 4.179688 -1.21875 4.328125 -1.5 C 4.484375 -1.78125 4.5625 -2.101562 4.5625 -2.46875 Z M 4.5625 -2.46875 "/></g></g></g><g fill="#000000" fill-opacity="1"><g transform="translate(137.188688, 236.548881)"><g><path d="M 6.625 -5.015625 C 7.007812 -5.015625 7.347656 -4.9375 7.640625 -4.78125 C 7.941406 -4.625 8.179688 -4.382812 8.359375 -4.0625 C 8.535156 -3.75 8.625 -3.363281 8.625 -2.90625 L 8.625 0 L 7.8125 0 L 7.8125 -2.796875 C 7.8125 -3.285156 7.6875 -3.660156 7.4375 -3.921875 C 7.195312 -4.179688 6.875 -4.3125 6.46875 -4.3125 C 6.039062 -4.3125 5.695312 -4.171875 5.4375 -3.890625 C 5.1875 -3.617188 5.0625 -3.226562 5.0625 -2.71875 L 5.0625 0 L 4.25 0 L 4.25 -2.796875 C 4.25 -3.285156 4.128906 -3.660156 3.890625 -3.921875 C 3.648438 -4.179688 3.320312 -4.3125 2.90625 -4.3125 C 2.476562 -4.3125 2.140625 -4.171875 1.890625 -3.890625 C 1.640625 -3.617188 1.515625 -3.226562 1.515625 -2.71875 L 1.515625 0 L 0.6875 0 L 0.6875 -4.9375 L 1.515625 -4.9375 L 1.515625 -4.21875 C 1.671875 -4.476562 1.882812 -4.675781 2.15625 -4.8125 C 2.4375 -4.945312 2.738281 -5.015625 3.0625 -5.015625 C 3.476562 -5.015625 3.84375 -4.921875 4.15625 -4.734375 C 4.476562 -4.554688 4.71875 -4.285156 4.875 -3.921875 C 5.007812 -4.273438 5.234375 -4.546875 5.546875 -4.734375 C 5.867188 -4.921875 6.226562 -5.015625 6.625 -5.015625 Z M 6.625 -5.015625 "/></g></g></g><g fill="#000000" fill-opacity="1"><g transform="translate(146.458756, 236.548881)"><g><path d="M 1.515625 -4.015625 C 1.671875 -4.304688 1.910156 -4.546875 2.234375 -4.734375 C 2.554688 -4.921875 2.929688 -5.015625 3.359375 -5.015625 C 3.796875 -5.015625 4.191406 -4.910156 4.546875 -4.703125 C 4.898438 -4.492188 5.179688 -4.195312 5.390625 -3.8125 C 5.597656 -3.425781 5.703125 -2.984375 5.703125 -2.484375 C 5.703125 -1.984375 5.597656 -1.535156 5.390625 -1.140625 C 5.179688 -0.753906 4.898438 -0.453125 4.546875 -0.234375 C 4.191406 -0.0234375 3.796875 0.078125 3.359375 0.078125 C 2.941406 0.078125 2.570312 -0.015625 2.25 -0.203125 C 1.925781 -0.390625 1.679688 -0.625 1.515625 -0.90625 L 1.515625 2.34375 L 0.6875 2.34375 L 0.6875 -4.9375 L 1.515625 -4.9375 Z M 4.859375 -2.484375 C 4.859375 -2.859375 4.78125 -3.179688 4.625 -3.453125 C 4.476562 -3.734375 4.273438 -3.941406 4.015625 -4.078125 C 3.765625 -4.222656 3.488281 -4.296875 3.1875 -4.296875 C 2.882812 -4.296875 2.601562 -4.222656 2.34375 -4.078125 C 2.09375 -3.929688 1.890625 -3.71875 1.734375 -3.4375 C 1.585938 -3.164062 1.515625 -2.84375 1.515625 -2.46875 C 1.515625 -2.101562 1.585938 -1.78125 1.734375 -1.5 C 1.890625 -1.21875 2.09375 -1.003906 2.34375 -0.859375 C 2.601562 -0.710938 2.882812 -0.640625 3.1875 -0.640625 C 3.488281 -0.640625 3.765625 -0.710938 4.015625 -0.859375 C 4.273438 -1.003906 4.476562 -1.21875 4.625 -1.5 C 4.78125 -1.78125 4.859375 -2.109375 4.859375 -2.484375 Z M 4.859375 -2.484375 "/></g></g></g><g fill="#000000" fill-opacity="1"><g transform="translate(152.542801, 236.548881)"><g><path d="M 5.0625 -4.9375 L 5.0625 0 L 4.25 0 L 4.25 -0.734375 C 4.09375 -0.472656 3.875 -0.269531 3.59375 -0.125 C 3.3125 0.0078125 3.003906 0.078125 2.671875 0.078125 C 2.285156 0.078125 1.9375 0 1.625 -0.15625 C 1.320312 -0.320312 1.082031 -0.5625 0.90625 -0.875 C 0.726562 -1.195312 0.640625 -1.585938 0.640625 -2.046875 L 0.640625 -4.9375 L 1.453125 -4.9375 L 1.453125 -2.15625 C 1.453125 -1.664062 1.578125 -1.289062 1.828125 -1.03125 C 2.078125 -0.769531 2.410156 -0.640625 2.828125 -0.640625 C 3.265625 -0.640625 3.609375 -0.773438 3.859375 -1.046875 C 4.117188 -1.316406 4.25 -1.707031 4.25 -2.21875 L 4.25 -4.9375 Z M 5.0625 -4.9375 "/></g></g></g><g fill="#000000" fill-opacity="1"><g transform="translate(158.302841, 236.548881)"><g><path d="M 2.4375 0.078125 C 2.0625 0.078125 1.722656 0.015625 1.421875 -0.109375 C 1.117188 -0.242188 0.878906 -0.425781 0.703125 -0.65625 C 0.535156 -0.882812 0.441406 -1.148438 0.421875 -1.453125 L 1.265625 -1.453125 C 1.296875 -1.203125 1.410156 -1 1.609375 -0.84375 C 1.816406 -0.6875 2.09375 -0.609375 2.4375 -0.609375 C 2.738281 -0.609375 2.976562 -0.675781 3.15625 -0.8125 C 3.34375 -0.957031 3.4375 -1.132812 3.4375 -1.34375 C 3.4375 -1.5625 3.335938 -1.722656 3.140625 -1.828125 C 2.953125 -1.929688 2.660156 -2.035156 2.265625 -2.140625 C 1.890625 -2.234375 1.585938 -2.328125 1.359375 -2.421875 C 1.128906 -2.523438 0.929688 -2.671875 0.765625 -2.859375 C 0.597656 -3.054688 0.515625 -3.316406 0.515625 -3.640625 C 0.515625 -3.890625 0.585938 -4.117188 0.734375 -4.328125 C 0.890625 -4.535156 1.101562 -4.703125 1.375 -4.828125 C 1.65625 -4.953125 1.972656 -5.015625 2.328125 -5.015625 C 2.878906 -5.015625 3.320312 -4.875 3.65625 -4.59375 C 3.988281 -4.320312 4.164062 -3.945312 4.1875 -3.46875 L 3.375 -3.46875 C 3.351562 -3.726562 3.25 -3.929688 3.0625 -4.078125 C 2.875 -4.234375 2.617188 -4.3125 2.296875 -4.3125 C 2.003906 -4.3125 1.769531 -4.25 1.59375 -4.125 C 1.425781 -4 1.34375 -3.835938 1.34375 -3.640625 C 1.34375 -3.472656 1.394531 -3.335938 1.5 -3.234375 C 1.601562 -3.128906 1.734375 -3.046875 1.890625 -2.984375 C 2.054688 -2.921875 2.28125 -2.847656 2.5625 -2.765625 C 2.914062 -2.671875 3.203125 -2.578125 3.421875 -2.484375 C 3.640625 -2.390625 3.828125 -2.25 3.984375 -2.0625 C 4.148438 -1.882812 4.234375 -1.644531 4.234375 -1.34375 C 4.234375 -1.070312 4.15625 -0.828125 4 -0.609375 C 3.851562 -0.390625 3.644531 -0.21875 3.375 -0.09375 C 3.101562 0.0195312 2.789062 0.078125 2.4375 0.078125 Z M 2.4375 0.078125 "/></g></g></g><g fill="#000000" fill-opacity="1"><g transform="translate(165.403888, 236.548881)"><g><path d="M 1.515625 -6.65625 L 1.515625 0 L 0.6875 0 L 0.6875 -6.65625 Z M 1.515625 -6.65625 "/></g></g></g><g fill="#000000" fill-opacity="1"><g transform="translate(167.617908, 236.548881)"><g><path d="M 1.109375 -5.734375 C 0.953125 -5.734375 0.820312 -5.785156 0.71875 -5.890625 C 0.613281 -6.003906 0.5625 -6.140625 0.5625 -6.296875 C 0.5625 -6.453125 0.613281 -6.582031 0.71875 -6.6875 C 0.820312 -6.789062 0.953125 -6.84375 1.109375 -6.84375 C 1.265625 -6.84375 1.394531 -6.789062 1.5 -6.6875 C 1.601562 -6.582031 1.65625 -6.453125 1.65625 -6.296875 C 1.65625 -6.140625 1.601562 -6.003906 1.5 -5.890625 C 1.394531 -5.785156 1.265625 -5.734375 1.109375 -5.734375 Z M 1.515625 -4.9375 L 1.515625 0 L 0.6875 0 L 0.6875 -4.9375 Z M 1.515625 -4.9375 "/></g></g></g><g fill="#000000" fill-opacity="1"><g transform="translate(169.831927, 236.548881)"><g><path d="M 2.703125 -4.25 L 1.671875 -4.25 L 1.671875 0 L 0.84375 0 L 0.84375 -4.25 L 0.203125 -4.25 L 0.203125 -4.9375 L 0.84375 -4.9375 L 0.84375 -5.28125 C 0.84375 -5.832031 0.984375 -6.234375 1.265625 -6.484375 C 1.554688 -6.742188 2.015625 -6.875 2.640625 -6.875 L 2.640625 -6.1875 C 2.285156 -6.1875 2.035156 -6.113281 1.890625 -5.96875 C 1.742188 -5.832031 1.671875 -5.601562 1.671875 -5.28125 L 1.671875 -4.9375 L 2.703125 -4.9375 Z M 2.703125 -4.25 "/></g></g></g><g fill="#000000" fill-opacity="1"><g transform="translate(172.792948, 236.548881)"><g><path d="M 5.1875 -2.65625 C 5.1875 -2.5 5.179688 -2.332031 5.171875 -2.15625 L 1.21875 -2.15625 C 1.25 -1.675781 1.414062 -1.296875 1.71875 -1.015625 C 2.019531 -0.742188 2.390625 -0.609375 2.828125 -0.609375 C 3.179688 -0.609375 3.472656 -0.691406 3.703125 -0.859375 C 3.941406 -1.023438 4.113281 -1.242188 4.21875 -1.515625 L 5.09375 -1.515625 C 4.957031 -1.046875 4.691406 -0.660156 4.296875 -0.359375 C 3.898438 -0.0664062 3.410156 0.078125 2.828125 0.078125 C 2.359375 0.078125 1.9375 -0.0234375 1.5625 -0.234375 C 1.195312 -0.441406 0.910156 -0.738281 0.703125 -1.125 C 0.492188 -1.507812 0.390625 -1.957031 0.390625 -2.46875 C 0.390625 -2.976562 0.488281 -3.425781 0.6875 -3.8125 C 0.894531 -4.195312 1.179688 -4.492188 1.546875 -4.703125 C 1.921875 -4.910156 2.347656 -5.015625 2.828125 -5.015625 C 3.296875 -5.015625 3.707031 -4.910156 4.0625 -4.703125 C 4.425781 -4.503906 4.703125 -4.222656 4.890625 -3.859375 C 5.085938 -3.503906 5.1875 -3.101562 5.1875 -2.65625 Z M 4.34375 -2.828125 C 4.34375 -3.140625 4.273438 -3.40625 4.140625 -3.625 C 4.003906 -3.851562 3.816406 -4.023438 3.578125 -4.140625 C 3.335938 -4.253906 3.078125 -4.3125 2.796875 -4.3125 C 2.378906 -4.3125 2.023438 -4.179688 1.734375 -3.921875 C 1.441406 -3.660156 1.273438 -3.296875 1.234375 -2.828125 Z M 4.34375 -2.828125 "/></g></g></g><g fill="#000000" fill-opacity="1"><g transform="translate(178.372984, 236.548881)"><g/></g></g><g fill="#000000" fill-opacity="1"><g transform="translate(180.776003, 236.548881)"><g><path d="M 1.109375 -5.734375 C 0.953125 -5.734375 0.820312 -5.785156 0.71875 -5.890625 C 0.613281 -6.003906 0.5625 -6.140625 0.5625 -6.296875 C 0.5625 -6.453125 0.613281 -6.582031 0.71875 -6.6875 C 0.820312 -6.789062 0.953125 -6.84375 1.109375 -6.84375 C 1.265625 -6.84375 1.394531 -6.789062 1.5 -6.6875 C 1.601562 -6.582031 1.65625 -6.453125 1.65625 -6.296875 C 1.65625 -6.140625 1.601562 -6.003906 1.5 -5.890625 C 1.394531 -5.785156 1.265625 -5.734375 1.109375 -5.734375 Z M 1.515625 -4.9375 L 1.515625 0 L 0.6875 0 L 0.6875 -4.9375 Z M 1.515625 -4.9375 "/></g></g></g><g fill="#000000" fill-opacity="1"><g transform="translate(182.990022, 236.548881)"><g><path d="M 2.4375 0.078125 C 2.0625 0.078125 1.722656 0.015625 1.421875 -0.109375 C 1.117188 -0.242188 0.878906 -0.425781 0.703125 -0.65625 C 0.535156 -0.882812 0.441406 -1.148438 0.421875 -1.453125 L 1.265625 -1.453125 C 1.296875 -1.203125 1.410156 -1 1.609375 -0.84375 C 1.816406 -0.6875 2.09375 -0.609375 2.4375 -0.609375 C 2.738281 -0.609375 2.976562 -0.675781 3.15625 -0.8125 C 3.34375 -0.957031 3.4375 -1.132812 3.4375 -1.34375 C 3.4375 -1.5625 3.335938 -1.722656 3.140625 -1.828125 C 2.953125 -1.929688 2.660156 -2.035156 2.265625 -2.140625 C 1.890625 -2.234375 1.585938 -2.328125 1.359375 -2.421875 C 1.128906 -2.523438 0.929688 -2.671875 0.765625 -2.859375 C 0.597656 -3.054688 0.515625 -3.316406 0.515625 -3.640625 C 0.515625 -3.890625 0.585938 -4.117188 0.734375 -4.328125 C 0.890625 -4.535156 1.101562 -4.703125 1.375 -4.828125 C 1.65625 -4.953125 1.972656 -5.015625 2.328125 -5.015625 C 2.878906 -5.015625 3.320312 -4.875 3.65625 -4.59375 C 3.988281 -4.320312 4.164062 -3.945312 4.1875 -3.46875 L 3.375 -3.46875 C 3.351562 -3.726562 3.25 -3.929688 3.0625 -4.078125 C 2.875 -4.234375 2.617188 -4.3125 2.296875 -4.3125 C 2.003906 -4.3125 1.769531 -4.25 1.59375 -4.125 C 1.425781 -4 1.34375 -3.835938 1.34375 -3.640625 C 1.34375 -3.472656 1.394531 -3.335938 1.5 -3.234375 C 1.601562 -3.128906 1.734375 -3.046875 1.890625 -2.984375 C 2.054688 -2.921875 2.28125 -2.847656 2.5625 -2.765625 C 2.914062 -2.671875 3.203125 -2.578125 3.421875 -2.484375 C 3.640625 -2.390625 3.828125 -2.25 3.984375 -2.0625 C 4.148438 -1.882812 4.234375 -1.644531 4.234375 -1.34375 C 4.234375 -1.070312 4.15625 -0.828125 4 -0.609375 C 3.851562 -0.390625 3.644531 -0.21875 3.375 -0.09375 C 3.101562 0.0195312 2.789062 0.078125 2.4375 0.078125 Z M 2.4375 0.078125 "/></g></g></g><g fill="#000000" fill-opacity="1"><g transform="translate(187.688051, 236.548881)"><g/></g></g><g fill="#000000" fill-opacity="1"><g transform="translate(190.091069, 236.548881)"><g><path d="M 0.390625 -2.484375 C 0.390625 -2.984375 0.488281 -3.425781 0.6875 -3.8125 C 0.894531 -4.195312 1.175781 -4.492188 1.53125 -4.703125 C 1.882812 -4.910156 2.285156 -5.015625 2.734375 -5.015625 C 3.160156 -5.015625 3.53125 -4.921875 3.84375 -4.734375 C 4.164062 -4.546875 4.40625 -4.3125 4.5625 -4.03125 L 4.5625 -4.9375 L 5.390625 -4.9375 L 5.390625 0 L 4.5625 0 L 4.5625 -0.921875 C 4.394531 -0.628906 4.148438 -0.390625 3.828125 -0.203125 C 3.515625 -0.015625 3.144531 0.078125 2.71875 0.078125 C 2.28125 0.078125 1.882812 -0.0234375 1.53125 -0.234375 C 1.175781 -0.453125 0.894531 -0.753906 0.6875 -1.140625 C 0.488281 -1.535156 0.390625 -1.984375 0.390625 -2.484375 Z M 4.5625 -2.46875 C 4.5625 -2.84375 4.484375 -3.164062 4.328125 -3.4375 C 4.179688 -3.71875 3.976562 -3.929688 3.71875 -4.078125 C 3.46875 -4.222656 3.191406 -4.296875 2.890625 -4.296875 C 2.585938 -4.296875 2.304688 -4.222656 2.046875 -4.078125 C 1.796875 -3.941406 1.59375 -3.734375 1.4375 -3.453125 C 1.289062 -3.179688 1.21875 -2.859375 1.21875 -2.484375 C 1.21875 -2.109375 1.289062 -1.78125 1.4375 -1.5 C 1.59375 -1.21875 1.796875 -1.003906 2.046875 -0.859375 C 2.304688 -0.710938 2.585938 -0.640625 2.890625 -0.640625 C 3.191406 -0.640625 3.46875 -0.710938 3.71875 -0.859375 C 3.976562 -1.003906 4.179688 -1.21875 4.328125 -1.5 C 4.484375 -1.78125 4.5625 -2.101562 4.5625 -2.46875 Z M 4.5625 -2.46875 "/></g></g></g><g fill="#000000" fill-opacity="1"><g transform="translate(196.175114, 236.548881)"><g/></g></g><g fill="#000000" fill-opacity="1"><g transform="translate(198.578133, 236.548881)"><g><path d="M 1.515625 -4.015625 C 1.671875 -4.304688 1.910156 -4.546875 2.234375 -4.734375 C 2.554688 -4.921875 2.929688 -5.015625 3.359375 -5.015625 C 3.796875 -5.015625 4.191406 -4.910156 4.546875 -4.703125 C 4.898438 -4.492188 5.179688 -4.195312 5.390625 -3.8125 C 5.597656 -3.425781 5.703125 -2.984375 5.703125 -2.484375 C 5.703125 -1.984375 5.597656 -1.535156 5.390625 -1.140625 C 5.179688 -0.753906 4.898438 -0.453125 4.546875 -0.234375 C 4.191406 -0.0234375 3.796875 0.078125 3.359375 0.078125 C 2.941406 0.078125 2.570312 -0.015625 2.25 -0.203125 C 1.925781 -0.390625 1.679688 -0.625 1.515625 -0.90625 L 1.515625 2.34375 L 0.6875 2.34375 L 0.6875 -4.9375 L 1.515625 -4.9375 Z M 4.859375 -2.484375 C 4.859375 -2.859375 4.78125 -3.179688 4.625 -3.453125 C 4.476562 -3.734375 4.273438 -3.941406 4.015625 -4.078125 C 3.765625 -4.222656 3.488281 -4.296875 3.1875 -4.296875 C 2.882812 -4.296875 2.601562 -4.222656 2.34375 -4.078125 C 2.09375 -3.929688 1.890625 -3.71875 1.734375 -3.4375 C 1.585938 -3.164062 1.515625 -2.84375 1.515625 -2.46875 C 1.515625 -2.101562 1.585938 -1.78125 1.734375 -1.5 C 1.890625 -1.21875 2.09375 -1.003906 2.34375 -0.859375 C 2.601562 -0.710938 2.882812 -0.640625 3.1875 -0.640625 C 3.488281 -0.640625 3.765625 -0.710938 4.015625 -0.859375 C 4.273438 -1.003906 4.476562 -1.21875 4.625 -1.5 C 4.78125 -1.78125 4.859375 -2.109375 4.859375 -2.484375 Z M 4.859375 -2.484375 "/></g></g></g><g fill="#000000" fill-opacity="1"><g transform="translate(204.662178, 236.548881)"><g><path d="M 5.0625 -4.9375 L 5.0625 0 L 4.25 0 L 4.25 -0.734375 C 4.09375 -0.472656 3.875 -0.269531 3.59375 -0.125 C 3.3125 0.0078125 3.003906 0.078125 2.671875 0.078125 C 2.285156 0.078125 1.9375 0 1.625 -0.15625 C 1.320312 -0.320312 1.082031 -0.5625 0.90625 -0.875 C 0.726562 -1.195312 0.640625 -1.585938 0.640625 -2.046875 L 0.640625 -4.9375 L 1.453125 -4.9375 L 1.453125 -2.15625 C 1.453125 -1.664062 1.578125 -1.289062 1.828125 -1.03125 C 2.078125 -0.769531 2.410156 -0.640625 2.828125 -0.640625 C 3.265625 -0.640625 3.609375 -0.773438 3.859375 -1.046875 C 4.117188 -1.316406 4.25 -1.707031 4.25 -2.21875 L 4.25 -4.9375 Z M 5.0625 -4.9375 "/></g></g></g><g fill="#000000" fill-opacity="1"><g transform="translate(210.422218, 236.548881)"><g><path d="M 1.515625 -4.125 C 1.660156 -4.40625 1.863281 -4.625 2.125 -4.78125 C 2.394531 -4.9375 2.722656 -5.015625 3.109375 -5.015625 L 3.109375 -4.171875 L 2.890625 -4.171875 C 1.972656 -4.171875 1.515625 -3.675781 1.515625 -2.6875 L 1.515625 0 L 0.6875 0 L 0.6875 -4.9375 L 1.515625 -4.9375 Z M 1.515625 -4.125 "/></g></g></g><g fill="#000000" fill-opacity="1"><g transform="translate(213.779239, 236.548881)"><g><path d="M 5.1875 -2.65625 C 5.1875 -2.5 5.179688 -2.332031 5.171875 -2.15625 L 1.21875 -2.15625 C 1.25 -1.675781 1.414062 -1.296875 1.71875 -1.015625 C 2.019531 -0.742188 2.390625 -0.609375 2.828125 -0.609375 C 3.179688 -0.609375 3.472656 -0.691406 3.703125 -0.859375 C 3.941406 -1.023438 4.113281 -1.242188 4.21875 -1.515625 L 5.09375 -1.515625 C 4.957031 -1.046875 4.691406 -0.660156 4.296875 -0.359375 C 3.898438 -0.0664062 3.410156 0.078125 2.828125 0.078125 C 2.359375 0.078125 1.9375 -0.0234375 1.5625 -0.234375 C 1.195312 -0.441406 0.910156 -0.738281 0.703125 -1.125 C 0.492188 -1.507812 0.390625 -1.957031 0.390625 -2.46875 C 0.390625 -2.976562 0.488281 -3.425781 0.6875 -3.8125 C 0.894531 -4.195312 1.179688 -4.492188 1.546875 -4.703125 C 1.921875 -4.910156 2.347656 -5.015625 2.828125 -5.015625 C 3.296875 -5.015625 3.707031 -4.910156 4.0625 -4.703125 C 4.425781 -4.503906 4.703125 -4.222656 4.890625 -3.859375 C 5.085938 -3.503906 5.1875 -3.101562 5.1875 -2.65625 Z M 4.34375 -2.828125 C 4.34375 -3.140625 4.273438 -3.40625 4.140625 -3.625 C 4.003906 -3.851562 3.816406 -4.023438 3.578125 -4.140625 C 3.335938 -4.253906 3.078125 -4.3125 2.796875 -4.3125 C 2.378906 -4.3125 2.023438 -4.179688 1.734375 -3.921875 C 1.441406 -3.660156 1.273438 -3.296875 1.234375 -2.828125 Z M 4.34375 -2.828125 "/></g></g></g><g fill="#000000" fill-opacity="1"><g transform="translate(219.359274, 236.548881)"><g/></g></g><g fill="#000000" fill-opacity="1"><g transform="translate(221.762293, 236.548881)"><g><path d="M 1.515625 -4.015625 C 1.679688 -4.304688 1.925781 -4.546875 2.25 -4.734375 C 2.570312 -4.921875 2.941406 -5.015625 3.359375 -5.015625 C 3.796875 -5.015625 4.191406 -4.910156 4.546875 -4.703125 C 4.898438 -4.492188 5.179688 -4.195312 5.390625 -3.8125 C 5.597656 -3.425781 5.703125 -2.984375 5.703125 -2.484375 C 5.703125 -1.984375 5.597656 -1.535156 5.390625 -1.140625 C 5.179688 -0.753906 4.898438 -0.453125 4.546875 -0.234375 C 4.191406 -0.0234375 3.796875 0.078125 3.359375 0.078125 C 2.929688 0.078125 2.554688 -0.015625 2.234375 -0.203125 C 1.910156 -0.390625 1.671875 -0.625 1.515625 -0.90625 L 1.515625 0 L 0.6875 0 L 0.6875 -6.65625 L 1.515625 -6.65625 Z M 4.859375 -2.484375 C 4.859375 -2.859375 4.78125 -3.179688 4.625 -3.453125 C 4.476562 -3.734375 4.273438 -3.941406 4.015625 -4.078125 C 3.765625 -4.222656 3.488281 -4.296875 3.1875 -4.296875 C 2.882812 -4.296875 2.601562 -4.222656 2.34375 -4.078125 C 2.09375 -3.929688 1.890625 -3.71875 1.734375 -3.4375 C 1.585938 -3.164062 1.515625 -2.84375 1.515625 -2.46875 C 1.515625 -2.101562 1.585938 -1.78125 1.734375 -1.5 C 1.890625 -1.21875 2.09375 -1.003906 2.34375 -0.859375 C 2.601562 -0.710938 2.882812 -0.640625 3.1875 -0.640625 C 3.488281 -0.640625 3.765625 -0.710938 4.015625 -0.859375 C 4.273438 -1.003906 4.476562 -1.21875 4.625 -1.5 C 4.78125 -1.78125 4.859375 -2.109375 4.859375 -2.484375 Z M 4.859375 -2.484375 "/></g></g></g><g fill="#000000" fill-opacity="1"><g transform="translate(227.846338, 236.548881)"><g><path d="M 1.515625 -6.65625 L 1.515625 0 L 0.6875 0 L 0.6875 -6.65625 Z M 1.515625 -6.65625 "/></g></g></g><g fill="#000000" fill-opacity="1"><g transform="translate(230.060358, 236.548881)"><g><path d="M 1.109375 -5.734375 C 0.953125 -5.734375 0.820312 -5.785156 0.71875 -5.890625 C 0.613281 -6.003906 0.5625 -6.140625 0.5625 -6.296875 C 0.5625 -6.453125 0.613281 -6.582031 0.71875 -6.6875 C 0.820312 -6.789062 0.953125 -6.84375 1.109375 -6.84375 C 1.265625 -6.84375 1.394531 -6.789062 1.5 -6.6875 C 1.601562 -6.582031 1.65625 -6.453125 1.65625 -6.296875 C 1.65625 -6.140625 1.601562 -6.003906 1.5 -5.890625 C 1.394531 -5.785156 1.265625 -5.734375 1.109375 -5.734375 Z M 1.515625 -4.9375 L 1.515625 0 L 0.6875 0 L 0.6875 -4.9375 Z M 1.515625 -4.9375 "/></g></g></g><g fill="#000000" fill-opacity="1"><g transform="translate(232.274377, 236.548881)"><g><path d="M 2.4375 0.078125 C 2.0625 0.078125 1.722656 0.015625 1.421875 -0.109375 C 1.117188 -0.242188 0.878906 -0.425781 0.703125 -0.65625 C 0.535156 -0.882812 0.441406 -1.148438 0.421875 -1.453125 L 1.265625 -1.453125 C 1.296875 -1.203125 1.410156 -1 1.609375 -0.84375 C 1.816406 -0.6875 2.09375 -0.609375 2.4375 -0.609375 C 2.738281 -0.609375 2.976562 -0.675781 3.15625 -0.8125 C 3.34375 -0.957031 3.4375 -1.132812 3.4375 -1.34375 C 3.4375 -1.5625 3.335938 -1.722656 3.140625 -1.828125 C 2.953125 -1.929688 2.660156 -2.035156 2.265625 -2.140625 C 1.890625 -2.234375 1.585938 -2.328125 1.359375 -2.421875 C 1.128906 -2.523438 0.929688 -2.671875 0.765625 -2.859375 C 0.597656 -3.054688 0.515625 -3.316406 0.515625 -3.640625 C 0.515625 -3.890625 0.585938 -4.117188 0.734375 -4.328125 C 0.890625 -4.535156 1.101562 -4.703125 1.375 -4.828125 C 1.65625 -4.953125 1.972656 -5.015625 2.328125 -5.015625 C 2.878906 -5.015625 3.320312 -4.875 3.65625 -4.59375 C 3.988281 -4.320312 4.164062 -3.945312 4.1875 -3.46875 L 3.375 -3.46875 C 3.351562 -3.726562 3.25 -3.929688 3.0625 -4.078125 C 2.875 -4.234375 2.617188 -4.3125 2.296875 -4.3125 C 2.003906 -4.3125 1.769531 -4.25 1.59375 -4.125 C 1.425781 -4 1.34375 -3.835938 1.34375 -3.640625 C 1.34375 -3.472656 1.394531 -3.335938 1.5 -3.234375 C 1.601562 -3.128906 1.734375 -3.046875 1.890625 -2.984375 C 2.054688 -2.921875 2.28125 -2.847656 2.5625 -2.765625 C 2.914062 -2.671875 3.203125 -2.578125 3.421875 -2.484375 C 3.640625 -2.390625 3.828125 -2.25 3.984375 -2.0625 C 4.148438 -1.882812 4.234375 -1.644531 4.234375 -1.34375 C 4.234375 -1.070312 4.15625 -0.828125 4 -0.609375 C 3.851562 -0.390625 3.644531 -0.21875 3.375 -0.09375 C 3.101562 0.0195312 2.789062 0.078125 2.4375 0.078125 Z M 2.4375 0.078125 "/></g></g></g><g fill="#000000" fill-opacity="1"><g transform="translate(236.972406, 236.548881)"><g><path d="M 2.4375 0.078125 C 2.0625 0.078125 1.722656 0.015625 1.421875 -0.109375 C 1.117188 -0.242188 0.878906 -0.425781 0.703125 -0.65625 C 0.535156 -0.882812 0.441406 -1.148438 0.421875 -1.453125 L 1.265625 -1.453125 C 1.296875 -1.203125 1.410156 -1 1.609375 -0.84375 C 1.816406 -0.6875 2.09375 -0.609375 2.4375 -0.609375 C 2.738281 -0.609375 2.976562 -0.675781 3.15625 -0.8125 C 3.34375 -0.957031 3.4375 -1.132812 3.4375 -1.34375 C 3.4375 -1.5625 3.335938 -1.722656 3.140625 -1.828125 C 2.953125 -1.929688 2.660156 -2.035156 2.265625 -2.140625 C 1.890625 -2.234375 1.585938 -2.328125 1.359375 -2.421875 C 1.128906 -2.523438 0.929688 -2.671875 0.765625 -2.859375 C 0.597656 -3.054688 0.515625 -3.316406 0.515625 -3.640625 C 0.515625 -3.890625 0.585938 -4.117188 0.734375 -4.328125 C 0.890625 -4.535156 1.101562 -4.703125 1.375 -4.828125 C 1.65625 -4.953125 1.972656 -5.015625 2.328125 -5.015625 C 2.878906 -5.015625 3.320312 -4.875 3.65625 -4.59375 C 3.988281 -4.320312 4.164062 -3.945312 4.1875 -3.46875 L 3.375 -3.46875 C 3.351562 -3.726562 3.25 -3.929688 3.0625 -4.078125 C 2.875 -4.234375 2.617188 -4.3125 2.296875 -4.3125 C 2.003906 -4.3125 1.769531 -4.25 1.59375 -4.125 C 1.425781 -4 1.34375 -3.835938 1.34375 -3.640625 C 1.34375 -3.472656 1.394531 -3.335938 1.5 -3.234375 C 1.601562 -3.128906 1.734375 -3.046875 1.890625 -2.984375 C 2.054688 -2.921875 2.28125 -2.847656 2.5625 -2.765625 C 2.914062 -2.671875 3.203125 -2.578125 3.421875 -2.484375 C 3.640625 -2.390625 3.828125 -2.25 3.984375 -2.0625 C 4.148438 -1.882812 4.234375 -1.644531 4.234375 -1.34375 C 4.234375 -1.070312 4.15625 -0.828125 4 -0.609375 C 3.851562 -0.390625 3.644531 -0.21875 3.375 -0.09375 C 3.101562 0.0195312 2.789062 0.078125 2.4375 0.078125 Z M 2.4375 0.078125 "/></g></g></g><g fill="#000000" fill-opacity="1"><g transform="translate(241.670434, 236.548881)"><g><path d="M 0.8125 -6.265625 L 1.734375 -6.265625 L 0.859375 -4.234375 L 0.28125 -4.234375 Z M 2.28125 -6.265625 L 3.1875 -6.265625 L 2.328125 -4.234375 L 1.734375 -4.234375 Z M 2.28125 -6.265625 "/></g></g></g></svg>